<svg xmlns="http://www.w3.org/2000/svg" viewBox="0 0 1400 1400">
  <rect width="1400" height="1400" fill="#b03524"/>
  <g transform="translate(700 700) scale(1.15) translate(-600 -600)">
    <path fill="#faf4e6" d="m1153.1 597.94c0-44.672-23.297-83.906-58.312-106.41 12.75-11.484 20.812-28.078 20.812-46.594 0-82.172-66.844-149.06-149.06-149.06h-733.13c-82.172 0-149.06-66.844-149.06 149.06 0 18.469 8.0625 35.062 20.812 46.594-35.016 22.547-58.312 61.781-58.312 106.41 0 44.672 23.297 83.906 58.312 106.41-12.75 11.484-20.812 28.078-20.812 46.594 0 82.172 66.844 149.06 149.06 149.06h733.18c82.172 0 149.06-66.844 149.06-149.06 0-18.469-8.0625-35.062-20.812-46.594 35.016-22.547 58.312-61.781 58.312-106.41zm-919.69-264.56h733.18c61.5 0 111.56 50.016 111.56 111.56 0 13.922-11.344 25.312-25.312 25.312h-905.68c-13.969 0-25.312-11.344-25.312-25.312 0-61.5 50.016-111.56 111.56-111.56zm733.13 529.13h-733.13c-61.5 0-111.56-50.016-111.56-111.56 0-13.969 11.344-25.312 25.312-25.312h905.68c13.969 0 25.312 11.344 25.312 25.312 0 61.5-50.016 111.56-111.56 111.56zm60-175.5h-853.13c-49.125 0-89.062-39.938-89.062-89.062s39.938-89.062 89.062-89.062h853.13c49.125 0 89.062 39.938 89.062 89.062s-39.938 89.062-89.062 89.062zm42.188-65.625c0 10.359-8.3906 18.75-18.75 18.75-33.234 0-50.062-19.125-63.562-34.5-12.562-14.297-19.875-21.75-35.438-21.75s-22.828 7.4531-35.438 21.75c-13.5 15.375-30.375 34.5-63.562 34.5-33.234 0-50.016-19.125-63.562-34.5-12.562-14.297-19.875-21.75-35.391-21.75-15.562 0-22.828 7.4531-35.391 21.75-13.5 15.375-30.328 34.5-63.562 34.5s-50.016-19.125-63.562-34.5c-12.562-14.297-19.875-21.75-35.391-21.75s-22.828 7.4531-35.391 21.75c-13.5 15.375-30.328 34.5-63.562 34.5-33.188 0-50.016-19.125-63.516-34.5-12.562-14.297-19.875-21.75-35.391-21.75s-22.828 7.4531-35.391 21.75c-13.5 15.375-30.328 34.5-63.562 34.5s-50.016-19.125-63.562-34.5c-12.562-14.297-19.875-21.75-35.391-21.75-10.359 0-18.75-8.3906-18.75-18.75s8.3906-18.75 18.75-18.75c33.188 0 50.016 19.125 63.562 34.5 12.562 14.297 19.875 21.75 35.391 21.75s22.828-7.4531 35.391-21.75c13.5-15.375 30.328-34.5 63.562-34.5 33.188 0 50.016 19.125 63.562 34.5 12.562 14.297 19.875 21.75 35.391 21.75s22.828-7.4531 35.391-21.75c13.5-15.375 30.328-34.5 63.562-34.5s50.016 19.125 63.562 34.5c12.562 14.297 19.875 21.75 35.391 21.75 15.562 0 22.828-7.4531 35.391-21.75 13.5-15.375 30.328-34.5 63.562-34.5s50.016 19.125 63.562 34.5c12.562 14.297 19.875 21.75 35.391 21.75 15.562 0 22.828-7.4531 35.438-21.75 13.5-15.375 30.375-34.5 63.562-34.5 33.234 0 50.062 19.125 63.609 34.5 12.562 14.297 19.875 21.75 35.438 21.75 10.359 0 18.75 8.3906 18.75 18.75z"/>
  </g>
</svg>
